# xmcd CD database file
#
# Track frame offsets:
#	150
#	22435
#	36667
#	58042
#	68967
#	87895
#	100965
#	124430
#	143677
#	157080
#	176102
#	196145
#	214702
#
# Disc length: 3113 seconds
#
# Revision: 0
# Processed by: cddbd v1.5.1PL0 Copyright (c) Steve Scherf et al.
# Submitted via: CDex 1.60beta1
#
DISCID=cb0c270d
DTITLE=Natalie Douglas - Not That Different
DYEAR=1900
DGENRE=Blues
TTITLE0=Ain't Got Nothin' But The Blues
TTITLE1=Georgia Rose
TTITLE2=Not That Different
TTITLE3=Experiment
TTITLE4=Small Day Tomorrow
TTITLE5=I Was Telling Him About You
TTITLE6=Bewitched, Bothered And Bewildered
TTITLE7=Where've You Been
TTITLE8=Wheelers And Dealers
TTITLE9=Until It's Time For You To Go
TTITLE10=Standing Knee Deep In A River
TTITLE11=Satan's Lil' Lamb
TTITLE12=Johan Man
EXTD=
EXTT0=
EXTT1=
EXTT2=
EXTT3=
EXTT4=
EXTT5=
EXTT6=
EXTT7=
EXTT8=
EXTT9=
EXTT10=
EXTT11=
EXTT12=
PLAYORDER=
